Coordinates
version=1
nRows=32
nColumns=22
inDegrees=yes

Units are S.I. units (second, meters, Newtons, ...)
If the header above contains a line with 'inDegrees', this indicates whether rotational values are in degrees (yes) or radians (no).

endheader
time	pelvis_tilt	pelvis_list	pelvis_rotation	pelvis_tx	pelvis_ty	pelvis_tz	hip_flexion_r	hip_adduction_r	hip_rotation_r	knee_angle_r	ankle_angle_r	subtalar_angle_r	hip_flexion_l	hip_adduction_l	hip_rotation_l	knee_angle_l	ankle_angle_l	subtalar_angle_l	lumbar_extension	lumbar_bending	lumbar_rotation
      2.90000000	     -3.04161397	     -2.61022975	      6.75950295	      0.06441568	      1.01636519	      0.25619840	     10.97002139	      2.26626408	     -9.39941370	    -19.28263590	      8.50370325	     -1.50371106	     25.51222130	     -6.25041661	     -9.07651675	    -44.18603805	      8.94367914	      7.02990507	     -5.48855957	     -3.36221351	      0.01235907
      2.91000000	     -3.00383950	     -2.63690637	      6.60934419	      0.05870160	      1.01649759	      0.25620631	     11.31785930	      2.26448472	     -9.28446075	    -19.32461307	      8.25050860	     -1.43743496	     25.05675093	     -6.44996251	     -8.84894509	    -46.19526635	      8.95131981	      7.13676441	     -5.32776306	     -3.24435322	      0.00095084
      2.92000000	     -2.95265400	     -2.66059794	      6.48739127	      0.05303383	      1.01659030	      0.25612082	     11.65664543	      2.25601470	     -9.17690399	    -19.38553020	      7.99972417	     -1.38160624	     24.50177460	     -6.63153969	     -8.61892346	    -48.05577943	      8.93147930	      7.25516630	     -5.17980009	     -3.13458277	     -0.06772255
      2.93000000	     -2.90006676	     -2.67956418	      6.39730495	      0.04738656	      1.01662599	      0.25591723	     12.00258282	      2.23286868	     -9.09089183	    -19.46888492	      7.74403614	     -1.34003669	     23.86228028	     -6.78992081	     -8.38612114	    -49.75429607	      8.88426656	      7.38002286	     -5.03382896	     -3.03108768	     -0.18828462
      2.94000000	     -2.84324278	     -2.67242307	      6.32520730	      0.04174432	      1.01662386	      0.25561597	     12.36033887	      2.16992978	     -9.04379350	    -19.59123687	      7.48721329	     -1.31161706	     23.12688243	     -6.91218731	     -8.17933968	    -51.26888800	      8.78115053	      7.46805755	     -4.89799507	     -2.96234337	     -0.33784629
      2.95000000	     -2.79938978	     -2.67911677	      6.29196078	      0.03608980	      1.01654494	      0.25519383	     12.73435734	      2.11245805	     -8.99620457	    -19.71849737	      7.21077211	     -1.29655891	     22.33633784	     -7.02798659	     -7.95498517	    -52.60945414	      8.66909681	      7.55632871	     -4.74662199	     -2.87890195	     -0.55078999
      2.96000000	     -2.76384847	     -2.68060701	      6.28398790	      0.03041647	      1.01640452	      0.25466807	     13.12536505	      2.03874823	     -8.96153847	    -19.86363566	      6.94016936	     -1.30145417	     21.47991977	     -7.13027318	     -7.74406393	    -53.76269973	      8.52406769	      7.61502347	     -4.58841265	     -2.80530416	     -0.79924860
      2.97000000	     -2.73058139	     -2.69101040	      6.29881111	      0.02470935	      1.01621111	      0.25405667	     13.52335573	      1.96571409	     -8.94771095	    -20.01209898	      6.66241153	     -1.34328988	     20.55965358	     -7.23726080	     -7.54001718	    -54.72933660	      8.34359757	      7.63080910	     -4.43216993	     -2.72625815	     -1.08964766
      2.98000000	     -2.70751749	     -2.69747258	      6.31942128	      0.01897774	      1.01596318	      0.25337355	     13.94368749	      1.87950402	     -8.94171327	    -20.17964153	      6.37045805	     -1.39205683	     19.57864839	     -7.35073304	     -7.38561752	    -55.50031597	      8.10734677	      7.59350630	     -4.26449585	     -2.65832324	     -1.37890607
      2.99000000	     -2.69713772	     -2.71650103	      6.34426974	      0.01318539	      1.01563797	      0.25263064	     14.39467153	      1.79743595	     -8.95395531	    -20.36656812	      6.06424450	     -1.44015593	     18.55636649	     -7.48788989	     -7.27026387	    -56.09270024	      7.84715104	      7.54687595	     -4.08503378	     -2.58474674	     -1.65368287
      3.00000000	     -2.64452405	     -2.75734182	      6.40876568	      0.00738034	      1.01533151	      0.25177531	     14.78036921	      1.73937001	     -8.96288764	    -20.50821390	      5.73538724	     -1.63692946	     17.43692996	     -7.65905649	     -7.16826460	    -56.49474355	      7.58607164	      7.40577707	     -3.95233658	     -2.48033385	     -1.99573713
      3.01000000	     -2.62265035	     -2.81364233	      6.46208328	      0.00150308	      1.01491707	      0.25087602	     15.22708664	      1.68917661	     -8.96273119	    -20.68788302	      5.38177790	     -1.81387722	     16.30246665	     -7.86262395	     -7.12331296	    -56.71963286	      7.32787855	      7.33133539	     -3.78277149	     -2.36964556	     -2.29140463
      3.02000000	     -2.60424948	     -2.89116911	      6.52648354	     -0.00444755	      1.01443593	      0.24989870	     15.68886940	      1.65428486	     -8.96561033	    -20.87290380	      5.00219048	     -2.01208539	     15.13493579	     -8.09928728	     -7.11021093	    -56.77095184	      7.09295222	      7.29441419	     -3.61075098	     -2.23955701	     -2.58745857
      3.03000000	     -2.60221390	     -2.98280300	      6.60286557	     -0.01047612	      1.01386738	      0.24882987	     16.18032414	      1.62396170	     -8.96658757	    -21.06682503	      4.59188225	     -2.19619452	     13.95302350	     -8.35527698	     -7.12708081	    -56.65332084	      6.87950176	      7.29055725	     -3.41989352	     -2.09788970	     -2.88115783
      3.04000000	     -2.59536615	     -3.08830263	      6.69224440	     -0.01659810	      1.01322510	      0.24765602	     16.68411717	      1.59842496	     -8.96928811	    -21.28140866	      4.16708284	     -2.39964737	     12.74208493	     -8.62309957	     -7.15728266	    -56.37288920	      6.69462456	      7.29910387	     -3.23738030	     -1.94136224	     -3.16406833
      3.05000000	     -2.58186966	     -3.20117440	      6.79287230	     -0.02284567	      1.01248880	      0.24637117	     17.20710174	      1.56773001	     -8.98468324	    -21.53360755	      3.76458324	     -2.62502311	     11.51022705	     -8.88958761	     -7.18958888	    -55.94180580	      6.53426128	      7.31265478	     -3.07232874	     -1.77518225	     -3.42962830
      3.06000000	     -2.60039958	     -3.30792998	      6.91188066	     -0.02921432	      1.01162298	      0.24496381	     17.77228857	      1.51474491	     -8.98971833	    -21.79227173	      3.36636862	     -2.77460745	     10.30288789	     -9.12582986	     -7.20695340	    -55.35862594	      6.37534375	      7.33057221	     -2.87611876	     -1.62073955	     -3.70162547
      3.07000000	     -2.67265192	     -3.41959316	      7.05246217	     -0.03574161	      1.01055543	      0.24340485	     18.42231546	      1.43807858	     -9.01441500	    -22.09255367	      3.00251653	     -2.81494143	      9.16381284	     -9.33018440	     -7.17998640	    -54.65114975	      6.23637581	      7.35160422	     -2.62387513	     -1.46558168	     -3.96181879
      3.08000000	     -2.68399228	     -3.49684625	      7.20779072	     -0.04238060	      1.00952122	      0.24174034	     18.98999428	      1.33291086	     -8.99781789	    -22.35746234	      2.66204916	     -2.96336655	      7.94009831	     -9.47402132	     -7.12081021	    -53.76740514	      6.06475692	      7.34739576	     -2.46026885	     -1.34317202	     -4.24196461
      3.09000000	     -2.73140532	     -3.58228001	      7.38745089	     -0.04922771	      1.00830160	      0.23992192	     19.63186891	      1.20507334	     -9.02304074	    -22.67422926	      2.36350802	     -3.06284874	      6.78372368	     -9.58291907	     -6.98762981	    -52.77242773	      5.89444268	      7.33030725	     -2.27093045	     -1.21156906	     -4.50354205
      3.10000000	     -2.80500933	     -3.66299262	      7.59176423	     -0.05627174	      1.00696125	      0.23796994	     20.30781408	      1.05240013	     -9.05225829	    -22.98481519	      2.05162201	     -3.11386731	      5.67486889	     -9.63858224	     -6.76453294	    -51.64254752	      5.69493314	      7.31207880	     -2.06902585	     -1.08713297	     -4.77894231
      3.11000000	     -2.87866218	     -3.73509520	      7.82492561	     -0.06352779	      1.00553925	      0.23587346	     20.99146901	      0.86849150	     -9.10732687	    -23.29426385	      1.74538654	     -3.15816280	      4.59018595	     -9.64061853	     -6.44429342	    -50.37838358	      5.44698404	      7.28310396	     -1.88853978	     -0.97089578	     -5.06069308
      3.12000000	     -2.95452203	     -3.80295334	      8.08938775	     -0.07100699	      1.00404050	      0.23363081	     21.67846695	      0.65595747	     -9.19561781	    -23.58794387	      1.43420397	     -3.19682015	      3.53554062	     -9.59372962	     -6.01616886	    -48.97863666	      5.14450741	      7.24768038	     -1.72770808	     -0.85739051	     -5.35393482
      3.13000000	     -3.03430266	     -3.86997743	      8.38780281	     -0.07872131	      1.00247243	      0.23124086	     22.36552753	      0.41629456	     -9.31924043	    -23.85521914	      1.09582671	     -3.22448425	      2.51482066	     -9.50063440	     -5.46846879	    -47.44143718	      4.79064651	      7.22054484	     -1.58525830	     -0.74478047	     -5.66422670
      3.14000000	     -3.11545596	     -3.93914869	      8.71828962	     -0.08669623	      1.00083396	      0.22870745	     23.04706201	      0.15224643	     -9.47309882	    -24.08893081	      0.72945285	     -3.24289500	      1.53015329	     -9.36752836	     -4.79660142	    -45.77268745	      4.41300160	      7.21495129	     -1.46731759	     -0.62826366	     -5.98936194
      3.15000000	     -3.20112568	     -4.01201416	      9.07937781	     -0.09493115	      0.99913203	      0.22602129	     23.71809164	     -0.13558249	     -9.65023514	    -24.27558693	      0.33086721	     -3.24884871	      0.58271350	     -9.19609249	     -3.99885712	    -43.97107829	      4.06074237	      7.24624669	     -1.36823371	     -0.50544474	     -6.33117341
      3.16000000	     -3.29379768	     -4.09104396	      9.46337152	     -0.10343952	      0.99736026	      0.22319733	     24.37995423	     -0.44370241	     -9.84337542	    -24.41147132	     -0.09646780	     -3.23824611	     -0.32216674	     -8.99427616	     -3.08622503	    -42.04944177	      3.80973323	      7.32598398	     -1.28622270	     -0.37440707	     -6.68598283
      3.17000000	     -3.39081782	     -4.18062496	      9.85987779	     -0.11223740	      0.99551850	      0.22026455	     25.03081359	     -0.76125258	    -10.03549833	    -24.49534528	     -0.54857606	     -3.21467989	     -1.18314601	     -8.77130946	     -2.06596145	    -40.02902182	      3.75657988	      7.47353831	     -1.22784068	     -0.23375795	     -7.03850076
      3.18000000	     -3.49926460	     -4.28439123	     10.25886089	     -0.12131207	      0.99359924	      0.21723899	     25.67542417	     -1.08365702	    -10.22949198	    -24.52113488	     -1.01807713	     -3.16878576	     -1.98423677	     -8.54894604	     -1.00155433	    -37.94502486	      3.98017388	      7.71557865	     -1.18086550	     -0.07776722	     -7.38583878
      3.19000000	     -3.61195053	     -4.41669305	     10.63998566	     -0.13066639	      0.99161218	      0.21419691	     26.30496756	     -1.37691618	    -10.38401666	    -24.47565299	     -1.49164007	     -3.10455060	     -2.71572004	     -8.36032998	      0.04310371	    -35.85365886	      4.56359151	      8.17732140	     -1.15471824	      0.10436324	     -7.70715232
      3.20000000	     -3.74904609	     -4.56887079	     10.99663771	     -0.14029317	      0.98954628	      0.21114384	     26.94816643	     -1.66077358	    -10.54559494	    -24.37611319	     -1.94783185	     -2.98523279	     -3.33338613	     -8.20880092	      0.97226656	    -33.81943071	      5.47725828	      8.68713076	     -1.12621292	      0.29887657	     -7.98540274
      3.21000000	     -3.89809308	     -4.73195850	     11.31160899	     -0.15016465	      0.98744776	      0.20815655	     27.58423469	     -1.92374232	    -10.67964375	    -24.20987811	     -2.34814285	     -2.81627041	     -3.83245645	     -8.09887042	      1.69124876	    -31.90590121	      6.70770281	      9.23106789	     -1.11465081	      0.48969405	     -8.21628229
